<?xml version="1.0" encoding="UTF-8" standalone="no"?>
<!-- Created with Inkscape (http://www.inkscape.org/) -->

<svg
   xmlns:dc="http://purl.org/dc/elements/1.1/"
   xmlns:cc="http://creativecommons.org/ns#"
   xmlns:rdf="http://www.w3.org/1999/02/22-rdf-syntax-ns#"
   xmlns:svg="http://www.w3.org/2000/svg"
   xmlns="http://www.w3.org/2000/svg"
   xmlns:xlink="http://www.w3.org/1999/xlink"
   xmlns:sodipodi="http://sodipodi.sourceforge.net/DTD/sodipodi-0.dtd"
   xmlns:inkscape="http://www.inkscape.org/namespaces/inkscape"
   width="32.35112mm"
   height="29.606504mm"
   viewBox="0 0 114.62995 104.90494"
   id="svg2"
   version="1.1"
   inkscape:version="0.91 r13725"
   sodipodi:docname="kuvs.svg">
  <defs
     id="defs4">
    <linearGradient
       inkscape:collect="always"
       id="linearGradient5709">
      <stop
         style="stop-color:#beb9b7;stop-opacity:1"
         offset="0"
         id="stop5711" />
      <stop
         style="stop-color:#dddad9;stop-opacity:1"
         offset="1"
         id="stop5713" />
    </linearGradient>
    <linearGradient
       inkscape:collect="always"
       id="linearGradient5672">
      <stop
         style="stop-color:#ffed01;stop-opacity:1"
         offset="0"
         id="stop5674" />
      <stop
         style="stop-color:#e5bf1e;stop-opacity:1"
         offset="1"
         id="stop5676" />
    </linearGradient>
    <radialGradient
       inkscape:collect="always"
       xlink:href="#linearGradient5672"
       id="radialGradient5678"
       cx="172.61824"
       cy="114.62907"
       fx="172.61824"
       fy="114.62907"
       r="75.130096"
       gradientTransform="matrix(0.2580297,-0.20071208,0.46878152,0.60265211,96.459377,95.376408)"
       gradientUnits="userSpaceOnUse" />
    <linearGradient
       inkscape:collect="always"
       xlink:href="#linearGradient5709"
       id="linearGradient5715"
       x1="205.71428"
       y1="224.68364"
       x2="193.21429"
       y2="242.54077"
       gradientUnits="userSpaceOnUse"
       gradientTransform="matrix(0.6059322,0,0,0.31496063,69.240315,136.91912)" />
    <clipPath
       clipPathUnits="userSpaceOnUse"
       id="clipPath5695-7">
      <path
         inkscape:connector-curvature="0"
         id="path5697-0"
         d="m 154.13386,113.38583 c 0.65623,4.56737 -0.051,5.08702 0.47161,10.12589 -8.52067,3.39241 -21.56346,9.69734 -21.94755,19.4693 -0.49673,12.63794 13.98885,21.71536 26.3206,27.32953 1.3788,12.2658 7.00783,25.04554 9.6829,31.65795 10.91867,1.68252 21.52319,1.76428 31.1811,0 6.07939,-7.96872 8.35986,-18.72469 11.41139,-29.62475 10.96546,-4.94192 31.9777,-13.72507 32.02148,-27.87695 0.0293,-9.45549 -13.699,-15.44842 -21.2793,-18.75782 1.34634,-5.1937 1.21309,-7.28404 3.00391,-12.32315 -29.79063,3.91981 -42.35414,7.96129 -70.86614,0 z m 0.84856,15.92109 c 1.26384,12.90419 2.26561,22.36321 3.55078,34.7592 -8.84478,-4.25728 -20.80199,-10.40214 -20.54659,-19.94336 0.2011,-7.51297 7.33698,-11.00023 16.99581,-14.81584 z m 66.1211,2.02344 c 6.43385,2.85474 16.28313,6.16846 16.48604,13.20675 0.32086,11.12934 -13.67776,17.3008 -24.82226,22.35044 3.13303,-12.26472 5.10309,-22.36763 8.33622,-35.55719 z"
         style="fill:#000000;fill-opacity:1;fill-rule:evenodd;stroke:none;stroke-width:1px;stroke-linecap:butt;stroke-linejoin:miter;stroke-opacity:1"
         sodipodi:nodetypes="ccaccccacccccaccacc" />
    </clipPath>
    <clipPath
       clipPathUnits="userSpaceOnUse"
       id="clipPath4151">
      <path
         sodipodi:nodetypes="ccacsccscacccccaccacc"
         style="fill:#000000;fill-opacity:1;fill-rule:evenodd;stroke:none;stroke-width:1px;stroke-linecap:butt;stroke-linejoin:miter;stroke-opacity:1"
         d="m 154.13386,113.38583 c 0.65623,4.56737 -0.051,5.08702 0.47161,10.12589 -8.52067,3.39241 -21.56346,9.69734 -21.94755,19.4693 -0.49673,12.63794 13.98885,21.71536 26.3206,27.32953 0.82767,7.36291 18.12308,11.15737 17.95829,17.8621 -0.21464,8.73289 -9.34467,11.15273 -8.27539,13.79585 10.91867,1.68252 21.52319,1.76428 31.1811,0 1.85771,-2.43505 -6.72425,-6.87509 -6.96083,-13.79585 -0.24465,-7.15703 16.25316,-8.25963 18.37222,-15.8289 10.96546,-4.94192 31.9777,-13.72507 32.02148,-27.87695 0.0293,-9.45549 -13.699,-15.44842 -21.2793,-18.75782 1.34634,-5.1937 1.21309,-7.28404 3.00391,-12.32315 -29.79063,3.91981 -42.35414,7.96129 -70.86614,0 z m 0.84856,15.92109 c 1.26384,12.90419 2.26561,22.36321 3.55078,34.7592 -8.84478,-4.25728 -20.80199,-10.40214 -20.54659,-19.94336 0.2011,-7.51297 7.33698,-11.00023 16.99581,-14.81584 z m 66.1211,2.02344 c 6.43385,2.85474 16.28313,6.16846 16.48604,13.20675 0.32086,11.12934 -13.67776,17.3008 -24.82226,22.35044 3.13303,-12.26472 5.10309,-22.36763 8.33622,-35.55719 z"
         id="path4153"
         inkscape:connector-curvature="0" />
    </clipPath>
  </defs>
  <sodipodi:namedview
     id="base"
     pagecolor="#ffffff"
     bordercolor="#666666"
     borderopacity="1.0"
     inkscape:pageopacity="0.0"
     inkscape:pageshadow="2"
     inkscape:zoom="3.959798"
     inkscape:cx="38.843479"
     inkscape:cy="41.862194"
     inkscape:document-units="px"
     inkscape:current-layer="layer2"
     showgrid="false"
     inkscape:window-width="1366"
     inkscape:window-height="705"
     inkscape:window-x="-8"
     inkscape:window-y="-8"
     inkscape:window-maximized="1"
     fit-margin-top="0"
     fit-margin-left="0"
     fit-margin-right="0"
     fit-margin-bottom="0" />
  <metadata
     id="metadata7">
    <rdf:RDF>
      <cc:Work
         rdf:about="">
        <dc:format>image/svg+xml</dc:format>
        <dc:type
           rdf:resource="http://purl.org/dc/dcmitype/StillImage" />
        <dc:title></dc:title>
      </cc:Work>
    </rdf:RDF>
  </metadata>
  <g
     inkscape:groupmode="layer"
     id="layer2"
     inkscape:label="Blur"
     style="display:inline;opacity:1"
     transform="translate(-132.64549,-113.38583)">
    <rect
       style="display:inline;fill:#000000;fill-opacity:1;stroke:none;stroke-width:3.54330707;stroke-miterlimit:4;stroke-dasharray:none;stroke-opacity:1"
       id="rect5699-8"
       width="51.071426"
       height="14.285714"
       x="163.42857"
       y="204.00505" />
    <path
       sodipodi:nodetypes="ccacsccscacccccaccacc"
       style="display:inline;fill:#000000;fill-opacity:1;fill-rule:evenodd;stroke:none;stroke-width:1px;stroke-linecap:butt;stroke-linejoin:miter;stroke-opacity:1"
       d="m 158.13386,115.38583 c 0.65623,4.56737 -0.051,5.08702 0.47161,10.12589 -8.52067,3.39241 -21.56346,9.69734 -21.94755,19.4693 -0.49673,12.63794 13.98885,21.71536 26.3206,27.32953 0.82767,7.36291 18.12308,11.15737 17.95829,17.8621 -0.21464,8.73289 -9.34467,11.15273 -8.27539,13.79585 10.91867,1.68252 21.52319,1.76428 31.1811,0 1.85771,-2.43505 -6.72425,-6.87509 -6.96083,-13.79585 -0.24465,-7.15703 16.25316,-8.25963 18.37222,-15.8289 10.96546,-4.94192 31.9777,-13.72507 32.02148,-27.87695 0.0293,-9.45549 -13.699,-15.44842 -21.2793,-18.75782 1.34634,-5.1937 1.21309,-7.28404 3.00391,-12.32315 -29.79063,3.91981 -42.35414,7.96129 -70.86614,0 z m 0.84856,15.92109 c 1.26384,12.90419 2.26561,22.36321 3.55078,34.7592 -8.84478,-4.25728 -20.80199,-10.40214 -20.54659,-19.94336 0.2011,-7.51297 7.33698,-11.00023 16.99581,-14.81584 z m 66.1211,2.02344 c 6.43385,2.85474 16.28313,6.16846 16.48604,13.20675 0.32086,11.12934 -13.67776,17.3008 -24.82226,22.35044 3.13303,-12.26472 5.10309,-22.36763 8.33622,-35.55719 z"
       id="path5697"
       inkscape:connector-curvature="0" />
  </g>
  <g
     inkscape:label="Layer 1"
     inkscape:groupmode="layer"
     id="layer1"
     style="display:inline"
     transform="translate(-132.64549,-113.38583)"
     sodipodi:insensitive="true">
    <rect
       style="fill:url(#radialGradient5678);fill-opacity:1;stroke:none;stroke-width:5.6692915;stroke-miterlimit:4;stroke-dasharray:none;stroke-opacity:1"
       id="rect4218"
       width="150.26019"
       height="121.47084"
       x="119.70308"
       y="101.30358"
       clip-path="url(#clipPath4151)" />
    <rect
       style="fill:url(#linearGradient5715);fill-opacity:1;stroke:none;stroke-width:3.54330707;stroke-miterlimit:4;stroke-dasharray:none;stroke-opacity:1"
       id="rect5699"
       width="51.071426"
       height="14.285714"
       x="161.42857"
       y="202.00505" />
  </g>
</svg>
